<svg xmlns="http://www.w3.org/2000/svg" width="1200" height="750" viewBox="0 0 1200 750" role="img" aria-label="Stap 1: formulier starten">
  <defs>
    <filter id="shadow" x="-20%" y="-20%" width="140%" height="140%">
      <feDropShadow dx="0" dy="8" stdDeviation="12" flood-color="#18181b" flood-opacity="0.08"/>
    </filter>
  </defs>
  <rect width="1200" height="750" fill="#f4f4f5"/>
  <rect x="70" y="48" width="1060" height="620" rx="18" fill="#ffffff" stroke="#e4e4e7" filter="url(#shadow)"/>
  <circle cx="98" cy="76" r="7" fill="#ef4444"/>
  <circle cx="122" cy="76" r="7" fill="#f59e0b"/>
  <circle cx="146" cy="76" r="7" fill="#22c55e"/>
  <rect x="190" y="64" width="860" height="28" rx="14" fill="#fafafa" stroke="#e4e4e7"/>
  <text x="210" y="83" fill="#71717a" font-family="system-ui,sans-serif" font-size="13">garage-peeters.be/contact</text>
  <rect x="90" y="104" width="1020" height="54" rx="12" fill="#fafafa" stroke="#e4e4e7"/>
  <rect x="108" y="118" width="28" height="28" rx="8" fill="#ecfdf5"/>
  <text x="122" y="137" text-anchor="middle" fill="#0f766e" font-family="system-ui,sans-serif" font-size="14" font-weight="700">G</text>
  <text x="148" y="137" fill="#18181b" font-family="system-ui,sans-serif" font-size="16" font-weight="700">Garage Peeters</text>
  <text x="920" y="118" text-anchor="end" fill="#0f766e" font-family="system-ui,sans-serif" font-size="13" font-weight="600">Contact</text>
  <text x="992" y="118" text-anchor="end" fill="#52525b" font-family="system-ui,sans-serif" font-size="13" font-weight="500">Diensten</text>
  <text x="1064" y="118" text-anchor="end" fill="#52525b" font-family="system-ui,sans-serif" font-size="13" font-weight="500">Afspraak</text>
  <circle cx="520" cy="168" r="14" fill="#0f766e" stroke="#0f766e"/>
  <text x="520" y="173" text-anchor="middle" fill="#ffffff" font-family="system-ui,sans-serif" font-size="12" font-weight="600">1</text>
  <circle cx="556" cy="168" r="14" fill="#fafafa" stroke="#e4e4e7"/>
  <text x="556" y="173" text-anchor="middle" fill="#71717a" font-family="system-ui,sans-serif" font-size="12" font-weight="600">2</text>
  <circle cx="592" cy="168" r="14" fill="#fafafa" stroke="#e4e4e7"/>
  <text x="592" y="173" text-anchor="middle" fill="#71717a" font-family="system-ui,sans-serif" font-size="12" font-weight="600">3</text>
  <circle cx="628" cy="168" r="14" fill="#fafafa" stroke="#e4e4e7"/>
  <text x="628" y="173" text-anchor="middle" fill="#71717a" font-family="system-ui,sans-serif" font-size="12" font-weight="600">4</text>
  
  <rect x="250" y="210" width="700" height="360" rx="20" fill="#ffffff" stroke="#e4e4e7"/>
  <text x="600" y="260" text-anchor="middle" fill="#18181b" font-family="system-ui,sans-serif" font-size="28" font-weight="700">Hoe kunnen we helpen?</text>
  <text x="600" y="292" text-anchor="middle" fill="#71717a" font-family="system-ui,sans-serif" font-size="16">Beantwoord enkele korte vragen voor een gerichte doorverwijzing</text>
  <rect x="320" y="320" width="560" height="120" rx="16" fill="#ffffff" stroke="#e4e4e7"/>
  <text x="350" y="360" fill="#52525b" font-family="system-ui,sans-serif" font-size="14">Gemiddelde doorlooptijd</text>
  <text x="350" y="390" fill="#18181b" font-family="system-ui,sans-serif" font-size="22" font-weight="700">2 minuten</text>
  <text x="350" y="418" fill="#71717a" font-family="system-ui,sans-serif" font-size="14">Banden, herstel, onderhoud of pechhulp</text>
  <rect x="470" y="470" width="260" height="48" rx="24" fill="#0f766e" stroke="#0f766e"/>
  <text x="600" y="500" text-anchor="middle" fill="#ffffff" font-family="system-ui,sans-serif" font-size="15" font-weight="600">Start aanvraag</text>
  <text x="600" y="710" text-anchor="middle" fill="#71717a" font-family="system-ui,sans-serif" font-size="24">Stap 1 - Formulier starten</text>
</svg>
